<mxfile host="app.diagrams.net" modified="2020-03-22T22:17:26.939Z" agent="Mozilla/5.0 (Macintosh; Intel Mac OS X 10_13_6) AppleWebKit/537.36 (KHTML, like Gecko) Chrome/80.0.3987.149 Safari/537.36" etag="lwkFcTGtz2r5hcN36c8M" version="12.8.8" type="github">
  <diagram id="vRzi_5YjjvNwbaxwRiRB" name="01-overview">
    <mxGraphModel dx="1050" dy="614" grid="1" gridSize="10" guides="1" tooltips="1" connect="1" arrows="1" fold="1" page="1" pageScale="1" pageWidth="500" pageHeight="300" math="0" shadow="0">
      <root>
        <mxCell id="0" />
        <mxCell id="1" parent="0" />
        <mxCell id="rOTm0ITEw_ur-YtBIUzM-18" style="edgeStyle=orthogonalEdgeStyle;rounded=1;orthogonalLoop=1;jettySize=auto;html=1;exitX=0.55;exitY=0.95;exitDx=0;exitDy=0;exitPerimeter=0;entryX=0;entryY=0.3333333333333333;entryDx=0;entryDy=0;entryPerimeter=0;startArrow=open;startFill=0;endArrow=open;endFill=0;strokeWidth=2;strokeColor=#FF6666;" parent="1" source="rOTm0ITEw_ur-YtBIUzM-1" target="rOTm0ITEw_ur-YtBIUzM-2" edge="1">
          <mxGeometry relative="1" as="geometry">
            <Array as="points">
              <mxPoint x="76" y="120" />
              <mxPoint x="30" y="120" />
              <mxPoint x="30" y="155" />
            </Array>
          </mxGeometry>
        </mxCell>
        <mxCell id="rOTm0ITEw_ur-YtBIUzM-35" style="edgeStyle=orthogonalEdgeStyle;orthogonalLoop=1;jettySize=auto;html=1;exitX=0.875;exitY=0.5;exitDx=0;exitDy=0;exitPerimeter=0;entryX=0;entryY=0.5;entryDx=0;entryDy=0;startArrow=block;startFill=1;endArrow=block;endFill=1;strokeWidth=3;strokeColor=#FF6666;" parent="1" source="rOTm0ITEw_ur-YtBIUzM-1" target="rOTm0ITEw_ur-YtBIUzM-20" edge="1">
          <mxGeometry relative="1" as="geometry">
            <Array as="points">
              <mxPoint x="140" y="40" />
              <mxPoint x="140" y="70" />
            </Array>
          </mxGeometry>
        </mxCell>
        <mxCell id="rOTm0ITEw_ur-YtBIUzM-1" value="Cloud Apps" style="ellipse;shape=cloud;whiteSpace=wrap;html=1;fillColor=#f5f5f5;strokeColor=#666666;fontColor=#333333;" parent="1" vertex="1">
          <mxGeometry x="10" width="120" height="80" as="geometry" />
        </mxCell>
        <mxCell id="rOTm0ITEw_ur-YtBIUzM-33" style="edgeStyle=orthogonalEdgeStyle;orthogonalLoop=1;jettySize=auto;html=1;exitX=1;exitY=0.3333333333333333;exitDx=0;exitDy=0;exitPerimeter=0;entryX=0;entryY=0.5;entryDx=0;entryDy=0;startArrow=block;startFill=1;endArrow=block;endFill=1;strokeWidth=3;fillColor=#f8cecc;strokeColor=#b85450;" parent="1" source="rOTm0ITEw_ur-YtBIUzM-2" target="rOTm0ITEw_ur-YtBIUzM-24" edge="1">
          <mxGeometry relative="1" as="geometry">
            <Array as="points">
              <mxPoint x="120" y="155" />
              <mxPoint x="120" y="245" />
            </Array>
          </mxGeometry>
        </mxCell>
        <mxCell id="rOTm0ITEw_ur-YtBIUzM-2" value="Mobile&lt;br&gt;User" style="shape=umlActor;verticalLabelPosition=bottom;labelBackgroundColor=#ffffff;verticalAlign=top;html=1;outlineConnect=0;fillColor=#f8cecc;strokeColor=#b85450;strokeWidth=3;" parent="1" vertex="1">
          <mxGeometry x="70" y="135" width="30" height="60" as="geometry" />
        </mxCell>
        <mxCell id="rOTm0ITEw_ur-YtBIUzM-13" value="" style="rounded=0;whiteSpace=wrap;html=1;fillColor=#f5f5f5;strokeColor=#666666;fontColor=#333333;" parent="1" vertex="1">
          <mxGeometry x="190" y="75" width="260" height="210" as="geometry" />
        </mxCell>
        <mxCell id="rOTm0ITEw_ur-YtBIUzM-20" value="Private Interface&lt;br&gt;Application Firewall" style="rounded=1;whiteSpace=wrap;html=1;labelBackgroundColor=#FFCCCC;fillColor=#f8cecc;strokeColor=#b85450;" parent="1" vertex="1">
          <mxGeometry x="160" y="50" width="120" height="40" as="geometry" />
        </mxCell>
        <mxCell id="rOTm0ITEw_ur-YtBIUzM-21" value="storage" style="shape=cylinder;whiteSpace=wrap;html=1;boundedLbl=1;backgroundOutline=1;labelBackgroundColor=#CCE5FF;strokeColor=#000000;fillColor=#dae8fc;" parent="1" vertex="1">
          <mxGeometry x="280" y="125" width="50" height="30" as="geometry" />
        </mxCell>
        <mxCell id="rOTm0ITEw_ur-YtBIUzM-22" value="storage" style="shape=cylinder;whiteSpace=wrap;html=1;boundedLbl=1;backgroundOutline=1;labelBackgroundColor=#CCE5FF;strokeColor=#000000;fillColor=#dae8fc;" parent="1" vertex="1">
          <mxGeometry x="280" y="95" width="50" height="30" as="geometry" />
        </mxCell>
        <mxCell id="rOTm0ITEw_ur-YtBIUzM-23" value="application" style="shape=hexagon;perimeter=hexagonPerimeter2;whiteSpace=wrap;html=1;labelBackgroundColor=#FFFFCC;strokeColor=#d6b656;fillColor=#fff2cc;" parent="1" vertex="1">
          <mxGeometry x="200" y="95" width="80" height="30" as="geometry" />
        </mxCell>
        <mxCell id="rOTm0ITEw_ur-YtBIUzM-34" style="edgeStyle=orthogonalEdgeStyle;orthogonalLoop=1;jettySize=auto;html=1;exitX=1;exitY=0.5;exitDx=0;exitDy=0;entryX=0;entryY=0.5;entryDx=0;entryDy=0;startArrow=block;startFill=1;endArrow=block;endFill=1;" parent="1" source="rOTm0ITEw_ur-YtBIUzM-24" target="rOTm0ITEw_ur-YtBIUzM-28" edge="1">
          <mxGeometry relative="1" as="geometry">
            <mxPoint x="210" y="250" as="sourcePoint" />
          </mxGeometry>
        </mxCell>
        <mxCell id="rOTm0ITEw_ur-YtBIUzM-24" value="VPN" style="rounded=1;whiteSpace=wrap;html=1;labelBackgroundColor=#FFCCCC;fillColor=#f8cecc;strokeColor=#b85450;" parent="1" vertex="1">
          <mxGeometry x="170" y="230" width="70" height="30" as="geometry" />
        </mxCell>
        <mxCell id="rOTm0ITEw_ur-YtBIUzM-25" value="application" style="shape=hexagon;perimeter=hexagonPerimeter2;whiteSpace=wrap;html=1;labelBackgroundColor=#FFFFCC;strokeColor=#d6b656;fillColor=#fff2cc;" parent="1" vertex="1">
          <mxGeometry x="200" y="125" width="80" height="30" as="geometry" />
        </mxCell>
        <mxCell id="rOTm0ITEw_ur-YtBIUzM-32" style="edgeStyle=orthogonalEdgeStyle;orthogonalLoop=1;jettySize=auto;html=1;exitX=0.5;exitY=1;exitDx=0;exitDy=0;entryX=0.5;entryY=0;entryDx=0;entryDy=0;startArrow=block;startFill=1;endArrow=block;endFill=1;" parent="1" source="rOTm0ITEw_ur-YtBIUzM-26" target="rOTm0ITEw_ur-YtBIUzM-24" edge="1">
          <mxGeometry relative="1" as="geometry">
            <mxPoint x="210" y="250" as="targetPoint" />
          </mxGeometry>
        </mxCell>
        <mxCell id="rOTm0ITEw_ur-YtBIUzM-26" value="application" style="shape=hexagon;perimeter=hexagonPerimeter2;whiteSpace=wrap;html=1;labelBackgroundColor=#FFFFCC;strokeColor=#d6b656;fillColor=#fff2cc;" parent="1" vertex="1">
          <mxGeometry x="200" y="155" width="80" height="30" as="geometry" />
        </mxCell>
        <mxCell id="rOTm0ITEw_ur-YtBIUzM-27" value="storage" style="shape=cylinder;whiteSpace=wrap;html=1;boundedLbl=1;backgroundOutline=1;labelBackgroundColor=#CCE5FF;strokeColor=#000000;fillColor=#dae8fc;" parent="1" vertex="1">
          <mxGeometry x="280" y="155" width="50" height="30" as="geometry" />
        </mxCell>
        <mxCell id="rOTm0ITEw_ur-YtBIUzM-45" style="edgeStyle=orthogonalEdgeStyle;orthogonalLoop=1;jettySize=auto;html=1;exitX=1;exitY=0.5;exitDx=0;exitDy=0;entryX=1;entryY=0.3333333333333333;entryDx=0;entryDy=0;entryPerimeter=0;startArrow=block;startFill=1;endArrow=block;endFill=1;" parent="1" source="rOTm0ITEw_ur-YtBIUzM-28" target="rOTm0ITEw_ur-YtBIUzM-37" edge="1">
          <mxGeometry relative="1" as="geometry" />
        </mxCell>
        <mxCell id="rOTm0ITEw_ur-YtBIUzM-28" value="shared&lt;br&gt;storage" style="shape=cylinder;whiteSpace=wrap;html=1;boundedLbl=1;backgroundOutline=1;labelBackgroundColor=#CCE5FF;strokeColor=#000000;fillColor=#dae8fc;" parent="1" vertex="1">
          <mxGeometry x="280" y="220" width="50" height="50" as="geometry" />
        </mxCell>
        <mxCell id="rOTm0ITEw_ur-YtBIUzM-44" style="edgeStyle=orthogonalEdgeStyle;orthogonalLoop=1;jettySize=auto;html=1;exitX=0;exitY=0.3333333333333333;exitDx=0;exitDy=0;exitPerimeter=0;entryX=0.5;entryY=1;entryDx=0;entryDy=0;startArrow=block;startFill=1;endArrow=block;endFill=1;" parent="1" source="rOTm0ITEw_ur-YtBIUzM-37" target="rOTm0ITEw_ur-YtBIUzM-26" edge="1">
          <mxGeometry relative="1" as="geometry">
            <Array as="points">
              <mxPoint x="350" y="160" />
              <mxPoint x="350" y="210" />
              <mxPoint x="240" y="210" />
            </Array>
          </mxGeometry>
        </mxCell>
        <mxCell id="rOTm0ITEw_ur-YtBIUzM-37" value="Local&lt;br&gt;User" style="shape=umlActor;verticalLabelPosition=bottom;labelBackgroundColor=#ffffff;verticalAlign=top;html=1;outlineConnect=0;strokeColor=#9673a6;fillColor=#e1d5e7;" parent="1" vertex="1">
          <mxGeometry x="380" y="140" width="30" height="60" as="geometry" />
        </mxCell>
        <mxCell id="rOTm0ITEw_ur-YtBIUzM-40" style="edgeStyle=orthogonalEdgeStyle;orthogonalLoop=1;jettySize=auto;html=1;exitX=0.5;exitY=0;exitDx=0;exitDy=0;entryX=0.88;entryY=0.25;entryDx=0;entryDy=0;entryPerimeter=0;startArrow=block;startFill=1;endArrow=block;endFill=1;strokeColor=#FF6666;strokeWidth=3;" parent="1" source="rOTm0ITEw_ur-YtBIUzM-38" target="rOTm0ITEw_ur-YtBIUzM-1" edge="1">
          <mxGeometry relative="1" as="geometry" />
        </mxCell>
        <mxCell id="rOTm0ITEw_ur-YtBIUzM-46" style="edgeStyle=orthogonalEdgeStyle;orthogonalLoop=1;jettySize=auto;html=1;exitX=0.5;exitY=1;exitDx=0;exitDy=0;entryX=0.5;entryY=0;entryDx=0;entryDy=0;entryPerimeter=0;startArrow=block;startFill=1;endArrow=block;endFill=1;" parent="1" source="rOTm0ITEw_ur-YtBIUzM-38" target="rOTm0ITEw_ur-YtBIUzM-37" edge="1">
          <mxGeometry relative="1" as="geometry" />
        </mxCell>
        <mxCell id="rOTm0ITEw_ur-YtBIUzM-38" value="Corp&lt;br&gt;Firewall" style="rounded=1;whiteSpace=wrap;html=1;labelBackgroundColor=#FFCCCC;fillColor=#f8cecc;strokeColor=#b85450;" parent="1" vertex="1">
          <mxGeometry x="360" y="60" width="70" height="30" as="geometry" />
        </mxCell>
      </root>
    </mxGraphModel>
  </diagram>
</mxfile>
